<?xml version="1.0" encoding="UTF-8"?>
<!DOCTYPE svg  PUBLIC '-//W3C//DTD SVG 1.1//EN'  'http://www.w3.org/Graphics/SVG/1.1/DTD/svg11.dtd'>
<svg clip-rule="evenodd" stroke-linecap="round" stroke-linejoin="round" stroke-miterlimit="10" version="1.1" viewBox="0 0 492 553" xml:space="preserve" xmlns="http://www.w3.org/2000/svg">

<g stroke="#fff" stroke-linejoin="round">
<path d="m17.959 136.98 228.55-119.98 227.96 120.57v0l-227.96 130.18v0l-228.55-130.77v0 266.25l228.55 131.95v0-267.43l227.96-130.18v267.43l-227.96 130.18" fill="none" stroke-linecap="round" stroke-width="34"/>
<g fill="#fff" opacity=".4" stroke-linecap="butt" stroke-width="20">
<path d="m218.32 81.055-105.32 60.805 105.41-30.982c29.647-8.714 61.371-7.149 90.017 4.441l69.363 28.065-105-62.052c-16.778-9.9153-37.597-10.021-54.474-0.2768z" opacity="1"/>
<path d="m290.1 326.39v121.61l25.872-106.78c7.277-30.033 24.494-56.724 48.855-75.737l58.987-46.038-106.24 59.905c-16.975 9.572-27.476 27.548-27.476 47.037z" opacity="1"/>
<path d="m177.17 280.25-105.32-60.804 79.534 75.794c22.371 21.319 36.877 49.575 41.163 80.178l10.377 74.103 1.239-121.96c0.199-19.487-10.119-37.569-26.997-47.314z" opacity="1"/>
</g>
</g>
</svg>
